<svg width="17" height="18" viewBox="0 0 17 18" fill="none" xmlns="http://www.w3.org/2000/svg">
<path d="M6.5625 2.84375V3.0625H10.0625V2.84375C10.0625 2.37962 9.87813 1.9345 9.54994 1.60631C9.22175 1.27812 8.77663 1.09375 8.3125 1.09375C7.84837 1.09375 7.40325 1.27812 7.07506 1.60631C6.74687 1.9345 6.5625 2.37962 6.5625 2.84375ZM5.46875 3.0625V2.84375C5.46875 2.08954 5.76836 1.36622 6.30167 0.832915C6.83497 0.299608 7.55829 0 8.3125 0C9.06671 0 9.79003 0.299608 10.3233 0.832915C10.8566 1.36622 11.1562 2.08954 11.1562 2.84375V3.0625H16.0781C16.2232 3.0625 16.3623 3.12012 16.4648 3.22268C16.5674 3.32523 16.625 3.46433 16.625 3.60938C16.625 3.75442 16.5674 3.89352 16.4648 3.99607C16.3623 4.09863 16.2232 4.15625 16.0781 4.15625H14.8019L13.9269 14.5932C13.8605 15.3858 13.4986 16.1245 12.9132 16.6629C12.3277 17.2013 11.5614 17.5 10.766 17.5H5.859C5.06371 17.4999 4.29746 17.2011 3.7121 16.6627C3.12674 16.1244 2.76498 15.3858 2.6985 14.5932L1.8235 4.15625H0.546875C0.401835 4.15625 0.262735 4.09863 0.160176 3.99607C0.057617 3.89352 0 3.75442 0 3.60938C0 3.46433 0.057617 3.32523 0.160176 3.22268C0.262735 3.12012 0.401835 3.0625 0.546875 3.0625H5.46875ZM3.78831 14.5018C3.83186 15.021 4.06888 15.505 4.4524 15.8577C4.83591 16.2104 5.33794 16.4062 5.859 16.4062H10.766C11.2871 16.4063 11.7893 16.2106 12.1729 15.8578C12.5565 15.5051 12.7936 15.0211 12.8371 14.5018L13.7043 4.15625H2.92075L3.78831 14.5018ZM7.21875 7.10938C7.21875 7.03756 7.20461 6.96645 7.17712 6.9001C7.14964 6.83375 7.10936 6.77346 7.05857 6.72268C7.00779 6.67189 6.9475 6.63161 6.88115 6.60413C6.8148 6.57664 6.74369 6.5625 6.67188 6.5625C6.60006 6.5625 6.52895 6.57664 6.4626 6.60413C6.39625 6.63161 6.33596 6.67189 6.28518 6.72268C6.23439 6.77346 6.19411 6.83375 6.16663 6.9001C6.13914 6.96645 6.125 7.03756 6.125 7.10938V13.4531C6.125 13.5249 6.13914 13.5961 6.16663 13.6624C6.19411 13.7288 6.23439 13.789 6.28518 13.8398C6.33596 13.8906 6.39625 13.9309 6.4626 13.9584C6.52895 13.9859 6.60006 14 6.67188 14C6.74369 14 6.8148 13.9859 6.88115 13.9584C6.9475 13.9309 7.00779 13.8906 7.05857 13.8398C7.10936 13.789 7.14964 13.7288 7.17712 13.6624C7.20461 13.5961 7.21875 13.5249 7.21875 13.4531V7.10938ZM9.95312 6.5625C10.255 6.5625 10.5 6.8075 10.5 7.10938V13.4531C10.5 13.5982 10.4424 13.7373 10.3398 13.8398C10.2373 13.9424 10.0982 14 9.95312 14C9.80808 14 9.66898 13.9424 9.56643 13.8398C9.46387 13.7373 9.40625 13.5982 9.40625 13.4531V7.10938C9.40625 6.8075 9.65125 6.5625 9.95312 6.5625Z" fill="#DD1C1A"/>
</svg>
