<svg width="17" height="17" viewBox="0 0 17 17" fill="none" xmlns="http://www.w3.org/2000/svg">
<path d="M7.7093 2.58139H2.49096C2.09553 2.58139 1.7163 2.73847 1.43669 3.01808C1.15708 3.29769 1 3.67692 1 4.07235V14.509C1 14.9045 1.15708 15.2837 1.43669 15.5633C1.7163 15.8429 2.09553 16 2.49096 16H12.9276C13.3231 16 13.7023 15.8429 13.9819 15.5633C14.2615 15.2837 14.4186 14.9045 14.4186 14.509V9.29069" stroke="#034FA1" stroke-linecap="round" stroke-linejoin="round"/>
<path d="M13.3002 1.46318C13.5968 1.16661 13.999 1 14.4185 1C14.8379 1 15.2401 1.16661 15.5367 1.46318C15.8332 1.75975 15.9999 2.16198 15.9999 2.5814C15.9999 3.00081 15.8332 3.40304 15.5367 3.69961L8.45463 10.7817L5.47272 11.5271L6.2182 8.54522L13.3002 1.46318Z" stroke="#034FA1" stroke-linecap="round" stroke-linejoin="round"/>
</svg>
