<svg width="20" height="20" viewBox="0 0 20 20" fill="none" xmlns="http://www.w3.org/2000/svg">
<path fill-rule="evenodd" clip-rule="evenodd" d="M7.99999 1.69229C6.32708 1.69229 4.7227 2.35685 3.53977 3.53977C2.35685 4.7227 1.69229 6.32708 1.69229 7.99999C1.69229 8.82832 1.85545 9.64855 2.17244 10.4138C2.48943 11.1791 2.95405 11.8745 3.53977 12.4602C4.1255 13.0459 4.82085 13.5105 5.58614 13.8275C6.35142 14.1445 7.17165 14.3077 7.99999 14.3077C8.82833 14.3077 9.64855 14.1445 10.4138 13.8275C11.1791 13.5105 11.8745 13.0459 12.4602 12.4602C13.0459 11.8745 13.5105 11.1791 13.8275 10.4138C14.1445 9.64855 14.3077 8.82833 14.3077 7.99999C14.3077 6.32708 13.6431 4.7227 12.4602 3.53977C11.2773 2.35685 9.67289 1.69229 7.99999 1.69229ZM2.5607 2.5607C4.00329 1.11812 5.95986 0.307678 7.99999 0.307678C10.0401 0.307678 11.9967 1.11812 13.4393 2.5607C14.8819 4.00329 15.6923 5.95986 15.6923 7.99999C15.6923 9.01015 15.4933 10.0104 15.1068 10.9437C14.8088 11.6631 14.4038 12.3318 13.9067 12.9277L19.4895 18.5105C19.7599 18.7808 19.7599 19.2192 19.4895 19.4895C19.2192 19.7599 18.7808 19.7599 18.5105 19.4895L12.9277 13.9067C12.3318 14.4038 11.6631 14.8088 10.9437 15.1068C10.0104 15.4933 9.01015 15.6923 7.99999 15.6923C6.98982 15.6923 5.98954 15.4933 5.05627 15.1068C4.12299 14.7202 3.275 14.1536 2.5607 13.4393C1.84641 12.725 1.2798 11.877 0.89322 10.9437C0.506646 10.0104 0.307678 9.01016 0.307678 7.99999C0.307678 5.95986 1.11812 4.00329 2.5607 2.5607Z" fill="#131515"/>
</svg>
