<svg width="29" height="31" viewBox="0 0 29 31" fill="none" xmlns="http://www.w3.org/2000/svg">
<path opacity="0.4" d="M0 16.9884C0.2 15.7884 0.4 14.5884 0.7 13.4884C1.9 9.78842 3.9 6.48842 6.7 3.78842C11.1 -0.411575 16.3 -0.811575 21.8 1.08842C24 1.78842 25.6 3.38842 26.7 5.38842C32.3 14.9884 26.1 28.1884 15.1 29.8884C8.1 30.9884 0.4 26.6884 0 16.9884ZM24.2 13.5884C23.9 9.88842 23 6.48842 18.8 5.18842C18.3 4.98842 17.7 4.68842 17.4 4.28842C16 2.48842 14.4 2.98842 12.7 3.68842C7.9 5.68842 3.6 12.1884 3.8 17.4884C3.9 21.3884 5.7 23.8884 9.4 25.2884C12.8 26.5884 15.9 26.0884 18.9 23.9884C22.5 21.3884 23.8 17.7884 24.2 13.5884Z" fill="#1768AC"/>
</svg>
