<svg width="18" height="18" viewBox="0 0 18 18" fill="none" xmlns="http://www.w3.org/2000/svg">
<path fill-rule="evenodd" clip-rule="evenodd" d="M17.4714 0.528575C17.7317 0.788925 17.7317 1.21103 17.4714 1.47138L1.47138 17.4714C1.21103 17.7317 0.788925 17.7317 0.528575 17.4714C0.268226 17.211 0.268226 16.7889 0.528575 16.5286L16.5286 0.528575C16.7889 0.268226 17.211 0.268226 17.4714 0.528575Z" fill="#131515"/>
<path fill-rule="evenodd" clip-rule="evenodd" d="M0.528575 0.528575C0.788925 0.268226 1.21103 0.268226 1.47138 0.528575L17.4714 16.5286C17.7317 16.7889 17.7317 17.211 17.4714 17.4714C17.211 17.7317 16.7889 17.7317 16.5286 17.4714L0.528575 1.47138C0.268226 1.21103 0.268226 0.788925 0.528575 0.528575Z" fill="#131515"/>
</svg>
