<svg width="34" height="33" viewBox="0 0 34 33" fill="none" xmlns="http://www.w3.org/2000/svg">
<g clip-path="url(#clip0_33_63)">
<path d="M20.7688 12.3255C20.0713 12.3255 19.5549 12.5019 19.1506 12.7246C19.0858 12.4936 18.8729 12.3245 18.6219 12.375H15.5522C15.2488 12.3245 15.0029 12.571 15.0965 12.8907V24.2344C15.0029 24.5232 15.2488 24.7707 15.5522 24.75H18.6219C18.9254 24.7707 19.1712 24.5232 19.1712 24.2189L19.1702 17.3632C19.1692 17.3601 19.1578 17.0322 19.3646 16.8063C19.5302 16.6269 19.8152 16.5351 20.2092 16.5351C20.8655 16.5351 21.1576 16.8042 21.2667 17.4065V24.2189C21.1587 24.5232 21.4045 24.7707 21.708 24.75H24.9433C25.2467 24.7707 25.4926 24.5232 25.3836 24.2189V17.1776C25.4916 13.5971 22.9476 12.3255 20.7688 12.3255ZM24.3929 23.7188H22.2573V17.4065C22.2573 16.1886 21.4724 15.4337 20.2102 15.4337C19.4963 15.4337 18.9408 15.6441 18.5581 16.0587C18.0263 16.6362 18.0674 17.3683 18.1816 17.5313V23.7188H16.1016V13.4269H18.0726V13.7734C18.0717 13.8766 18.1 13.978 18.1541 14.0658C18.2082 14.1537 18.2859 14.2244 18.3783 14.27C18.4707 14.3155 18.574 14.3341 18.6764 14.3234C18.7788 14.3127 18.8762 14.2733 18.9572 14.2096L19.1013 14.0982C19.5179 13.7693 19.9489 13.4279 20.7698 13.4279C21.6195 13.4279 24.3939 13.6992 24.3939 17.1786V23.7188H24.3929ZM12.0094 7.18372C10.8552 7.18372 9.91699 8.12422 9.91699 9.28128C9.91699 10.4383 10.8552 11.3788 12.0094 11.3788C13.1636 11.3788 14.1018 10.4383 14.1018 9.28128C14.1018 8.12422 13.1636 7.18372 12.0094 7.18372ZM12.0094 10.2775C11.4621 10.2775 11.0156 9.8299 11.0156 9.28128C11.0156 8.73265 11.4621 8.28509 12.0094 8.28509C12.5566 8.28509 13.0031 8.73265 13.0031 9.28128C13.0031 9.8299 12.5566 10.2775 12.0094 10.2775ZM13.4784 12.3245H10.4252C10.1217 12.3245 9.87584 12.571 9.95197 12.8907V24.2344C9.87584 24.5232 10.1217 24.7707 10.4252 24.75H13.4784C13.7818 24.7707 14.0277 24.5232 14.0277 24.2189V12.8752C14.0277 12.7291 13.9698 12.5891 13.8668 12.4858C13.7638 12.3825 13.6241 12.3245 13.4784 12.3245ZM13.0381 23.7188H10.9745V13.4269H13.0381V23.7188Z" fill="#131515"/>
<path d="M17.1529 -0.0350342C8.05713 -0.0350342 0.658691 7.38172 0.658691 16.5C0.658691 25.6183 8.05713 33.0351 17.1529 33.0351C26.2487 33.0351 33.6472 25.6183 33.6472 16.5C33.6472 7.38172 26.2487 -0.0350342 17.1529 -0.0350342ZM17.1529 31.9337C8.66406 31.9337 1.75735 25.0099 1.75735 16.5C1.75735 7.99015 8.66406 1.06634 17.1529 1.06634C25.6418 1.06634 32.5485 7.99015 32.5485 16.5C32.5485 25.0099 25.6418 31.9337 17.1529 31.9337Z" fill="#131515"/>
</g>
<defs>
<clipPath id="clip0_33_63">
<rect width="32.9185" height="33" fill="white" transform="translate(0.693848)"/>
</clipPath>
</defs>
</svg>
