<svg width="33" height="34" viewBox="0 0 33 34" fill="none" xmlns="http://www.w3.org/2000/svg">
<path d="M16.4953 0C7.40049 0 0 7.41675 0 16.5351C0 25.6534 7.40049 33.0701 16.4953 33.0701C25.59 33.0701 32.9905 25.6534 32.9905 16.5351C32.9905 7.41675 25.59 0 16.4953 0ZM16.4953 31.9688C8.0064 31.9688 1.10071 25.0449 1.10071 16.5351C1.10071 8.02519 8.0064 1.10138 16.4953 1.10138C24.9841 1.10138 31.8898 8.02519 31.8898 16.5351C31.8898 25.0449 24.9841 31.9688 16.4953 31.9688Z" fill="#131515"/>
<path d="M20.0957 7.25358H17.3511C13.8556 7.21852 13.4091 9.38724 13.4091 11.7344V13.4411H11.866C11.7963 13.4317 11.7253 13.4386 11.6587 13.4613C11.592 13.4839 11.5315 13.5216 11.4817 13.5715C11.432 13.6213 11.3944 13.682 11.3718 13.7488C11.3493 13.8157 11.3424 13.8868 11.3517 13.9567V17.0505C11.3424 17.1204 11.3493 17.1915 11.3718 17.2583C11.3944 17.3251 11.432 17.3858 11.4817 17.4357C11.5315 17.4856 11.592 17.5233 11.6587 17.5459C11.7253 17.5685 11.7963 17.5754 11.866 17.5661H13.4091V25.3005C13.4005 25.3705 13.408 25.4416 13.4311 25.5083C13.4541 25.575 13.492 25.6355 13.5419 25.6852C13.5918 25.735 13.6524 25.7726 13.7191 25.7953C13.7858 25.818 13.8567 25.8251 13.9265 25.8161H17.0692C17.3727 25.8511 17.6185 25.6047 17.5219 25.3005L17.5239 17.5661H20.0957C20.1654 17.5754 20.2364 17.5685 20.303 17.5459C20.3697 17.5233 20.4302 17.4856 20.48 17.4357C20.5297 17.3858 20.5673 17.3251 20.5899 17.2583C20.6124 17.1915 20.6193 17.1204 20.61 17.0505V13.9567C20.6193 13.8868 20.6124 13.8157 20.5899 13.7488C20.5673 13.682 20.5297 13.6213 20.48 13.5715C20.4302 13.5216 20.3697 13.4839 20.303 13.4613C20.2364 13.4386 20.1654 13.4317 20.0957 13.4411H17.5208L17.5239 11.8942C17.6237 11.2352 17.6237 11.3425 18.2337 11.3786H20.0741C20.2171 11.3466 20.3693 11.3641 20.4763 11.26C20.5833 11.1558 20.645 11.0135 20.609 10.863V7.76921C20.6185 7.69935 20.6118 7.62823 20.5893 7.56141C20.5669 7.49458 20.5294 7.43385 20.4797 7.38394C20.43 7.33404 20.3695 7.29631 20.3029 7.2737C20.2363 7.25109 20.1654 7.2442 20.0957 7.25358ZM19.5453 10.2896L18.2553 10.2401C16.6577 10.2401 16.524 11.1094 16.524 11.9994L16.5199 13.9546C16.5198 14.027 16.5339 14.0988 16.5614 14.1657C16.589 14.2326 16.6294 14.2935 16.6804 14.3447C16.7314 14.396 16.7921 14.4366 16.8588 14.4643C16.9255 14.4921 16.997 14.5064 17.0692 14.5064H19.5813V16.4987H17.0713C16.9255 16.4987 16.7857 16.5567 16.6825 16.66C16.5793 16.7632 16.5212 16.9033 16.5209 17.0494L16.5199 24.7848H14.4378V17.0505C14.4378 16.7462 14.231 16.4998 13.9265 16.4998H12.3804V14.5074H13.9265C13.9987 14.5075 14.0702 14.4934 14.1369 14.4657C14.2036 14.4381 14.2643 14.3976 14.3154 14.3465C14.4183 14.2424 14.4368 14.1021 14.4368 13.9557V11.7333C14.4368 9.42127 14.9028 8.31989 17.3501 8.31989H19.5443V10.2896H19.5453Z" fill="#131515"/>
</svg>
