<svg width="34" height="34" viewBox="0 0 34 34" fill="none" xmlns="http://www.w3.org/2000/svg">
<path d="M17.3062 12.6393C16.5375 12.6393 15.7862 12.8678 15.1471 13.2959C14.508 13.724 14.0099 14.3324 13.7158 15.0443C13.4216 15.7562 13.3447 16.5395 13.4946 17.2952C13.6446 18.0509 14.0147 18.7451 14.5582 19.2899C15.1017 19.8348 15.7941 20.2058 16.548 20.3561C17.3019 20.5065 18.0832 20.4293 18.7934 20.1344C19.5035 19.8396 20.1104 19.3402 20.5374 18.6996C20.9645 18.0589 21.1924 17.3057 21.1924 16.5352C21.1924 15.5019 20.7829 14.511 20.0541 13.7804C19.3253 13.0498 18.3368 12.6393 17.3062 12.6393ZM17.3062 19.7227C16.6773 19.7227 16.0625 19.5357 15.5397 19.1855C15.0168 18.8352 14.6092 18.3374 14.3686 17.755C14.1279 17.1725 14.0649 16.5316 14.1876 15.9133C14.3103 15.295 14.6131 14.727 15.0578 14.2813C15.5025 13.8355 16.0691 13.5319 16.6858 13.4089C17.3026 13.2859 17.942 13.349 18.523 13.5903C19.104 13.8315 19.6005 14.2401 19.9499 14.7643C20.2993 15.2885 20.4858 15.9047 20.4858 16.5352C20.4858 17.3805 20.1508 18.1913 19.5545 18.7891C18.9582 19.3868 18.1495 19.7227 17.3062 19.7227ZM21.1924 8.03516H13.4199C12.2019 8.03516 11.0337 8.52024 10.1723 9.38369C9.31103 10.2471 8.82715 11.4182 8.82715 12.6393V20.431C8.82715 21.0356 8.94594 21.6343 9.17675 22.1929C9.40756 22.7515 9.74587 23.2591 10.1723 23.6866C11.0337 24.5501 12.2019 25.0352 13.4199 25.0352H21.1924C21.7955 25.0352 22.3927 24.9161 22.95 24.6847C23.5072 24.4533 24.0135 24.1142 24.44 23.6866C24.8665 23.2591 25.2048 22.7515 25.4356 22.1929C25.6664 21.6343 25.7852 21.0356 25.7852 20.431V12.6393C25.7852 12.0347 25.6664 11.436 25.4356 10.8774C25.2048 10.3188 24.8665 9.81122 24.44 9.38369C24.0135 8.95615 23.5072 8.61701 22.95 8.38563C22.3927 8.15425 21.7955 8.03516 21.1924 8.03516ZM25.0786 20.431C25.0786 21.4642 24.6692 22.4551 23.9403 23.1858C23.2115 23.9164 22.2231 24.3268 21.1924 24.3268H13.4199C12.3893 24.3268 11.4008 23.9164 10.672 23.1858C9.94317 22.4551 9.53373 21.4642 9.53373 20.431V12.6393C9.53373 11.6061 9.94317 10.6152 10.672 9.88455C11.4008 9.15394 12.3893 8.74349 13.4199 8.74349H21.1924C22.2231 8.74349 23.2115 9.15394 23.9403 9.88455C24.6692 10.6152 25.0786 11.6061 25.0786 12.6393V20.431ZM22.6055 11.931C22.6055 12.0711 22.5641 12.208 22.4865 12.3245C22.4088 12.441 22.2985 12.5318 22.1694 12.5854C22.0402 12.639 21.8982 12.653 21.7611 12.6257C21.624 12.5984 21.4981 12.5309 21.3993 12.4319C21.3005 12.3328 21.2332 12.2066 21.206 12.0692C21.1787 11.9318 21.1927 11.7894 21.2462 11.6599C21.2996 11.5305 21.3902 11.4199 21.5064 11.342C21.6226 11.2642 21.7592 11.2227 21.899 11.2227C22.0864 11.2227 22.2661 11.2973 22.3986 11.4301C22.5311 11.563 22.6055 11.7431 22.6055 11.931Z" fill="#131515"/>
<path d="M17.3419 0.0351562C8.24717 0.0351562 0.84668 7.45191 0.84668 16.5702C0.84668 25.6885 8.24717 33.1053 17.3419 33.1053C26.4367 33.1053 33.8372 25.6885 33.8372 16.5702C33.8372 7.45191 26.4367 0.0351562 17.3419 0.0351562ZM17.3419 32.0039C8.85308 32.0039 1.94739 25.0801 1.94739 16.5702C1.94739 8.06034 8.85308 1.13653 17.3419 1.13653C25.8308 1.13653 32.7365 8.06034 32.7365 16.5702C32.7365 25.0801 25.8308 32.0039 17.3419 32.0039Z" fill="#131515"/>
</svg>
