<svg width="41" height="44" viewBox="0 0 41 44" fill="none" xmlns="http://www.w3.org/2000/svg">
<path opacity="0.4" fill-rule="evenodd" clip-rule="evenodd" d="M25.5719 7.00098C25.7507 5.97128 25.9839 4.9481 26.217 3.92492C26.2289 3.68105 26.2456 3.44332 26.2618 3.21108C26.297 2.70997 26.3304 2.23447 26.31 1.77835C26.2951 1.44459 26.0352 0.860067 25.8183 0.83397C25.4928 0.794825 24.9175 1.00228 24.722 1.2554C24.2027 1.9122 23.6703 2.67808 23.355 3.47006C22.3415 5.94855 21.4365 8.44009 20.5791 10.9927C20.07 12.4806 19.8321 14.0012 20.1975 15.5389C20.4246 16.3962 20.8341 17.1093 21.8106 17.2268C22.787 17.3442 23.4082 16.755 23.7778 15.9695C24.1409 15.2386 24.3478 14.4336 24.5004 13.622C24.6891 12.5105 24.8626 11.411 25.0361 10.3115C25.2097 9.212 25.3832 8.11249 25.5719 7.00098ZM13.867 42.5518C13.9164 43.0557 14.0136 43.6207 14.7599 43.8211C14.8484 43.5438 14.9392 43.2645 15.0308 42.9831L15.0311 42.9823C15.3968 41.8583 15.7737 40.7003 16.0507 39.4948C16.9653 36.0086 17.7713 32.5092 18.5774 29.0099C18.6907 28.5256 18.702 27.9737 18.6526 27.4698C18.4583 26.3399 17.6624 25.6356 16.7205 25.6883C15.7787 25.741 15.2594 26.3978 15.1151 27.5976C14.9988 29.0221 14.8217 30.4947 14.6512 31.9127C14.5591 32.6781 14.461 33.4429 14.3632 34.2056L14.3631 34.2058L14.3631 34.2059C14.1682 35.7254 13.9742 37.2369 13.8313 38.73C13.7056 39.7753 13.7682 40.8432 13.8309 41.9112C13.8434 42.1249 13.856 42.3384 13.867 42.5518ZM40.2189 25.6926C39.9488 25.7197 39.6739 25.7543 39.397 25.7891C38.6461 25.8835 37.8814 25.9797 37.1631 25.9337L36.6363 25.92C32.7018 25.8173 28.8133 25.7159 24.887 25.5085C24.2294 25.4848 23.4896 25.2298 22.9257 24.8854C22.1513 24.4603 22.3105 23.5942 23.1159 23.3038C23.5761 23.1378 24.0775 23.0874 24.5115 23.1396C29.6847 23.5958 34.8448 24.1611 39.9459 25.2172C40.0544 25.2302 40.1563 25.2978 40.2582 25.3654L40.2189 25.6926ZM13.7357 19.3909C14.3752 19.4124 15.0146 19.434 15.6519 19.4738C15.665 19.3647 15.6781 19.2556 15.752 19.0985C15.5383 19.0451 15.3398 18.9798 15.1413 18.9144C14.9428 18.849 14.7443 18.7837 14.5306 18.7303C12.631 18.2805 10.745 17.8324 8.85899 17.3843C6.97299 16.9362 5.08699 16.488 3.18744 16.0383C2.86523 15.9719 2.54466 15.8918 2.22409 15.8118C1.90353 15.7317 1.58296 15.6517 1.26075 15.5853C0.718273 15.52 0.258054 15.686 0.0839675 16.2183C-0.096678 16.8052 0.176337 17.2806 0.699138 17.5095C1.06576 17.6642 1.48662 17.8255 1.9206 17.8777C2.56643 17.9824 3.21511 18.0907 3.86543 18.1993C5.8785 18.5355 7.90736 18.8743 9.91648 19.116C11.1779 19.3046 12.4568 19.3477 13.7357 19.3909Z" fill="#1768AC"/>
</svg>
