<svg width="20" height="22" viewBox="0 0 20 22" fill="none" xmlns="http://www.w3.org/2000/svg">
<path fill-rule="evenodd" clip-rule="evenodd" d="M1.80664 15.13C2.78618 14.1625 4.11473 13.619 5.50001 13.619H14.5C15.8853 13.619 17.2138 14.1625 18.1934 15.13C19.1729 16.0974 19.7232 17.4096 19.7232 18.7777V21C19.7232 21.3945 19.3994 21.7143 19 21.7143C18.6006 21.7143 18.2768 21.3945 18.2768 21V18.7777C18.2768 17.7884 17.8789 16.8397 17.1706 16.1401C16.4623 15.4406 15.5017 15.0476 14.5 15.0476H5.50001C4.49834 15.0476 3.5377 15.4406 2.82942 16.1401C2.12113 16.8397 1.72322 17.7884 1.72322 18.7777V21C1.72322 21.3945 1.39943 21.7143 1.00001 21.7143C0.600588 21.7143 0.276794 21.3945 0.276794 21V18.7777C0.276794 17.4096 0.827096 16.0974 1.80664 15.13Z" fill="#131515"/>
<path fill-rule="evenodd" clip-rule="evenodd" d="M10 1.71428C7.91415 1.71428 6.22322 3.38433 6.22322 5.44444C6.22322 7.50455 7.91415 9.17459 10 9.17459C12.0859 9.17459 13.7768 7.50455 13.7768 5.44444C13.7768 3.38433 12.0859 1.71428 10 1.71428ZM4.77679 5.44444C4.77679 2.59535 7.11531 0.285706 10 0.285706C12.8847 0.285706 15.2232 2.59535 15.2232 5.44444C15.2232 8.29352 12.8847 10.6032 10 10.6032C7.11531 10.6032 4.77679 8.29352 4.77679 5.44444Z" fill="#131515"/>
</svg>
